<svg id="_x30_1" enable-background="new 0 0 62 62.557" height="512" viewBox="0 0 62 62.557" width="512" xmlns="http://www.w3.org/2000/svg"><g><g><g><path d="m19 43.557c5.32 0 9.67 4.16 9.98 9.4l-3.98-.4-2.72-6.12c-.39-.88-1.02-1.6-1.79-2.1-.48-.31-1.02-.54-2.28-.77v-.03c.26.01.52.02.79.02z" fill="#fcd770"/></g><g><path d="m22.28 46.437 2.72 6.12-7.69 3.42c-1.71-1.46-3.08-3.36-3.96-5.55-.23-.58-.35-1.19-.35-1.8v-.22c0-2.68 2.17-4.85 4.85-4.85.12 0 .24 0 .36.01 1.26.23 1.8.46 2.28.77.77.5 1.4 1.22 1.79 2.1z" fill="#fcd770"/></g><g><path d="m34.51 12.687-.51-.38c.64-1.23 1-2.62 1-4.07v-.68l-6 1-1-5-6 3-1-5-7 4v-3c-1.89.63-3.58 1.68-4.94 3.06-1.38 1.36-2.43 3.05-3.06 4.94l-.87.35c-1.25.5-2.28 1.35-3 2.42-.72 1.06-1.13 2.33-1.13 3.68 0 1.02.24 2.03.69 2.94l.97 1.93c.4-.21.86-.32 1.34-.32h1c0-3.31 2.69-6 6-6h16c1.01 0 1.97.25 2.8.69 1.9 1.01 3.2 3.01 3.2 5.31h1c.52 0 1.01.13 1.43.36l.52-.79c.69-1.02 1.05-2.23 1.05-3.46 0-1.96-.92-3.8-2.49-4.98z" fill="#b27946"/></g><g><path d="m61 11.557v17c0 .55-.45 1-1 1h-3.02c.01-.09.02-.18.02-.26 0-.96-.78-1.74-1.74-1.74h-.97c-.77 0-1.44.5-1.67 1.23l-.23.77h-10.39c-.55 0-1-.45-1-1v-17h4 4z" fill="#e6e9ed"/></g><g><path d="m42 5.557h18c.55 0 1 .45 1 1v5h-12-4-4v-5c0-.55.45-1 1-1z" fill="#b4dd7f"/></g><g><path d="m52.44 44.557-2.06 6.77c-.23.73-.9 1.23-1.67 1.23h-.97c-.96 0-1.74-.78-1.74-1.74 0-.17.03-.34.08-.51l6.31-20.75.23-.77c.23-.73.9-1.23 1.67-1.23h.97c.96 0 1.74.78 1.74 1.74 0 .08-.01.17-.02.26-.02.08-.04.16-.06.25l-1.84 6.04v.01z" fill="#ccd1d9"/></g><g><path d="m61 57.557v3c0 .55-.45 1-1 1h-10c-.55 0-1-.45-1-1v-2c0-.55.45-1 1-1z" fill="#aab2bd"/></g><g><path d="m45 58.557v2c0 .55-.45 1-1 1h-14c-.55 0-1-.45-1-1v-1-1c0-.55.45-1 1-1h5 9c.55 0 1 .45 1 1z" fill="#aab2bd"/></g><g><path d="m35 57.557h-5c-.55 0-1 .45-1 1v1h-2.16c-3.58 0-6.94-1.31-9.53-3.58l7.69-3.42 3.98.4 2.04.2c2.26.23 3.98 2.13 3.98 4.4z" fill="#f0d0b4"/></g><g><path d="m35.43 21.917c.94.51 1.57 1.5 1.57 2.64 0 .83-.34 1.58-.88 2.12s-1.29.88-2.12.88h-1v-4-2h1c.52 0 1.01.13 1.43.36z" fill="#f0d0b4"/></g><g><path d="m21 23.557c0-1.1.9-2 2-2h8c1.1 0 2 .9 2 2v-2c0-2.3-1.3-4.3-3.2-5.31-.83-.44-1.79-.69-2.8-.69h-16c-3.31 0-6 2.69-6 6v2c0-1.1.9-2 2-2h8c1.1 0 2 .9 2 2v2 4c0 1.1-.9 2-2 2h-8c-1.03 0-1.89-.79-1.99-1.8.1 7.37 5.9 13.37 13.2 13.78.26.01.52.02.79.02 3.86 0 7.36-1.57 9.9-4.1 2.49-2.49 4.05-5.91 4.09-9.7-.1 1.01-.96 1.8-1.99 1.8h-8c-1.1 0-2-.9-2-2v-4z" fill="#f0d0b4"/></g><g><path d="m5 21.557v2 4h-1c-.83 0-1.58-.34-2.12-.88s-.88-1.29-.88-2.12c0-1.18.67-2.19 1.66-2.68.4-.21.86-.32 1.34-.32z" fill="#f0d0b4"/></g><g><path d="m33 27.557v2c0 .07 0 .14-.01.2-.1 1.01-.96 1.8-1.99 1.8h-8c-1.1 0-2-.9-2-2v-4-2c0-1.1.9-2 2-2h8c1.1 0 2 .9 2 2z" fill="#69d6f4"/></g><g><path d="m17 25.557v4c0 1.1-.9 2-2 2h-8c-1.03 0-1.89-.79-1.99-1.8-.01-.06-.01-.13-.01-.2v-2-4c0-1.1.9-2 2-2h8c1.1 0 2 .9 2 2z" fill="#69d6f4"/></g></g><g><path d="m24.895 36.004-1.789-.895c-.446.893-1.344 1.447-2.342 1.447h-4.764v2h4.764c1.759.001 3.342-.978 4.131-2.552z"/><path d="m9 27.793c.381-.763 1.147-1.236 2-1.236s1.619.474 2 1.236l.105.211 1.789-.895-.105-.211c-.722-1.444-2.174-2.342-3.789-2.342s-3.067.897-3.789 2.342l-.105.211 1.789.895z"/><path d="m27 24.557c-1.615 0-3.067.897-3.789 2.342l-.105.211 1.789.895.105-.212c.381-.763 1.147-1.236 2-1.236s1.619.474 2 1.236l.105.211 1.789-.895-.105-.211c-.722-1.444-2.174-2.341-3.789-2.341z"/><path d="m44 56.557h-8.093c-.432-2.331-2.345-4.148-4.787-4.394l-1.232-.123c-.507-3.669-2.815-6.738-5.985-8.323 5.867-2.037 10.097-7.607 10.097-14.16v-1c2.206 0 4-1.794 4-4 0-1.125-.47-2.139-1.22-2.866l.006-.01c.794-1.193 1.214-2.579 1.214-4.01 0-2.211-1.037-4.32-2.773-5.682.49-1.171.773-2.44.773-3.757v-1.856l-6.209 1.035-1.067-5.334-6 3-1.016-5.077-6.708 3.833v-2.664l-1.316.439c-3.906 1.301-7.043 4.343-8.476 8.189l-.448.179c-2.892 1.156-4.76 3.916-4.76 7.03 0 1.169.276 2.339.799 3.386l.583 1.165c-.84.733-1.382 1.799-1.382 3 0 2.206 1.794 4 4 4v1c0 6.621 4.316 12.243 10.278 14.227-1.383 1.07-2.278 2.741-2.278 4.621v.218c0 .745.141 1.476.418 2.172 2.372 5.93 8.031 9.762 14.419 9.762h1.163c0 1.103.897 2 2 2h14c1.103 0 2-.897 2-2v-2c0-1.103-.897-2-2-2zm-16.174-4.723-2.148-.215-2.483-5.589c-.091-.204-.201-.394-.313-.584 2.518 1.209 4.393 3.553 4.944 6.388zm3.174-21.277h-8c-.552 0-1-.448-1-1v-6c0-.552.448-1 1-1h8c.552 0 1 .448 1 1v6c0 .551-.448 1-1 1zm-11-7v1h-2v-1c0-1.654-1.346-3-3-3h-8c-.321 0-.625.064-.915.158.403-2.355 2.446-4.158 4.915-4.158h16c2.468 0 4.512 1.802 4.915 4.158-.29-.094-.594-.158-.915-.158h-8c-1.654 0-3 1.345-3 3zm-14 6v-6c0-.552.448-1 1-1h8c.552 0 1 .448 1 1v6c0 .552-.448 1-1 1h-8c-.552 0-1-.449-1-1zm28-3v-3-1c1.103 0 2 .897 2 2s-.897 2-2 2zm2-8.886c0 1.035-.304 2.038-.878 2.9l-.091.137c-.331-.089-.672-.151-1.031-.151h-.08c-.24-1.666-1.066-3.141-2.265-4.213 1.03-.69 1.906-1.562 2.598-2.564 1.098.984 1.747 2.404 1.747 3.891zm-23-13.635v3.244l7.292-4.167.984 4.923 6-3 .933 4.666 5.774-.962c-.178 2.72-1.786 5.145-4.212 6.391-.851-.368-1.787-.575-2.771-.575h-16c-.365 0-.721.037-1.071.091l-2.809-4.213c1.066-2.807 3.185-5.113 5.88-6.398zm-10.412 15.461c-.385-.769-.588-1.631-.588-2.491 0-2.292 1.375-4.322 3.502-5.173l.116-.047 2.323 3.484c-2.042.998-3.525 2.956-3.861 5.286h-.08c-.287 0-.566.033-.836.091zm-.588 5.06c0-1.103.897-2 2-2v1 3c-1.103 0-2-.898-2-2zm4.343 7.922c.212.048.43.077.657.077h8c1.654 0 3-1.346 3-3v-3h2v3c0 1.654 1.346 3 3 3h8c.226 0 .445-.03.657-.077-1.332 5.764-6.495 10.078-12.657 10.078s-11.325-4.314-12.657-10.078zm7.932 17.575c-.182-.459-.275-.941-.275-1.431v-.218c0-2.122 1.727-3.849 3.849-3.849 1.52 0 2.9.897 3.518 2.286l2.314 5.206-6.201 2.756c-1.363-1.307-2.468-2.91-3.205-4.75zm13.725 8.503h-1.163c-2.794 0-5.428-.843-7.62-2.335l5.948-2.643 5.756.575c1.408.141 2.525 1.115 2.918 2.403h-3.839c-1.103 0-2 .897-2 2zm2 2v-2h14l.002 2z"/><path d="m32.293 40.85-3.707 3.707 3.707 3.707 1.414-1.414-2.293-2.293 2.293-2.293z"/><path d="m41.707 48.264 3.707-3.707-3.707-3.707-1.414 1.414 2.293 2.293-2.293 2.293z"/><path d="m31.615 43.557h10.77v2h-10.77z" transform="matrix(.371 -.929 .929 .371 -18.111 62.362)"/><path d="m60 30.557c1.103 0 2-.897 2-2v-22c0-1.103-.897-2-2-2h-18c-1.103 0-2 .897-2 2v22c0 1.103.897 2 2 2h9.041l-5.923 19.462c-.078.257-.118.526-.118.796 0 1.512 1.229 2.741 2.741 2.741h.969c1.214 0 2.269-.78 2.623-1.943l1.843-6.057h3.641l3.106 10.868c.013.044.023.088.032.132h-9.955c-1.103 0-2 .897-2 2v2c0 1.103.897 2 2 2h10c1.103 0 2-.897 2-2v-3.58c0-.369-.052-.738-.153-1.099l-5.72-20.017 1.614-5.304h2.259zm0 30h-10v-2h10zm-2.115-32c-.326-1.15-1.373-2-2.627-2h-.968c-.099 0-.194.013-.29.023v-14.023h6v16zm2.115-22v4h-10v-2h-2v2h-2v-2h-2v2h-2v-4zm-18 22v-16h10v15.243c-.139.214-.255.446-.333.701l-.017.057h-9.65zm7.42 22.473c-.097.315-.382.526-.71.526h-.969c-.409 0-.741-.332-.741-.741 0-.073.011-.146.032-.216l6.548-21.517c.097-.315.382-.526.71-.526h.969c.409 0 .741.332.741.741 0 .073-.011.146-.032.216zm6.826-7.473h-2.461l1.269-4.17z"/><path d="m56 14.557h2v2h-2z"/><path d="m56 18.557h2v2h-2z"/><path d="m44 14.557h6v2h-6z"/><path d="m44 18.557h6v2h-6z"/><path d="m44 22.557h6v2h-6z"/><path d="m56 22.557h2v2h-2z"/></g></g></svg>